<?xml version="1.0" encoding="UTF-8" standalone="no"?>
<svg
   xmlns:dc="http://purl.org/dc/elements/1.1/"
   xmlns:cc="http://creativecommons.org/ns#"
   xmlns:rdf="http://www.w3.org/1999/02/22-rdf-syntax-ns#"
   xmlns:svg="http://www.w3.org/2000/svg"
   xmlns="http://www.w3.org/2000/svg"
   viewBox="0 0 800 533.33331"
   height="533.33331"
   width="800"
   xml:space="preserve"
   id="svg2"
   version="1.1"><metadata
     id="metadata8"><rdf:RDF><cc:Work
         rdf:about=""><dc:format>image/svg+xml</dc:format><dc:type
           rdf:resource="http://purl.org/dc/dcmitype/StillImage" /></cc:Work></rdf:RDF></metadata><defs
     id="defs6"><clipPath
       id="clipPath18"
       clipPathUnits="userSpaceOnUse"><path
         id="path16"
         d="M 0,400 H 600 V 0 H 0 Z" /></clipPath><clipPath
       id="clipPath54"
       clipPathUnits="userSpaceOnUse"><path
         id="path52"
         d="M 0,400 H 600 V 0 H 0 Z" /></clipPath></defs><g
     transform="matrix(1.3333333,0,0,-1.3333333,0,533.33333)"
     id="g10"><g
       id="g12"><g
         clip-path="url(#clipPath18)"
         id="g14"><text
           id="text24"
           style="font-variant:normal;font-weight:normal;font-stretch:normal;font-size:86.2457962px;font-family:'Sony Sketch EF';-inkscape-font-specification:SonySketchEF;writing-mode:lr-tb;fill:#3bb9d7;fill-opacity:1;fill-rule:nonzero;stroke:none"
           transform="matrix(1,0,0,-1,42.4146,105.6855)"><tspan
             id="tspan20"
             y="0"
             x="0 47.090206 92.455498 142.90929 191.29318 240.28079 289.87213 339.89468">CYBEROPS</tspan><tspan
             id="tspan22"
             y="0"
             x="385.69122 436.14502 485.73636">BOX</tspan></text>
</g></g><g
       transform="translate(237.1294,285.4453)"
       id="g26"><path
         id="path28"
         style="fill:#787a7c;fill-opacity:1;fill-rule:nonzero;stroke:none"
         d="M 0,0 V -60.285 L 8.198,-65.02 V 4.731 Z" /></g><g
       transform="translate(382.2363,284.249)"
       id="g30"><path
         id="path32"
         style="fill:#787a7c;fill-opacity:1;fill-rule:nonzero;stroke:none"
         d="m 0,0 -7.623,4.398 v -68.22 l 8.197,4.733 V -0.33 Z" /></g><g
       transform="translate(267.6299,230.6445)"
       id="g34"><path
         id="path36"
         style="fill:#3bb9d7;fill-opacity:1;fill-rule:nonzero;stroke:none"
         d="m 0,0 43.382,-24.959 v 9.517 L 8.318,4.805 v 39.164 l 35.064,20.243 v 9.606 L 0,48.771 Z M 91.53,-4.074 42.234,-32.533 -7.056,-4.074 V 52.847 L 42.234,81.307 91.53,52.849 Z M 42.234,90.395 -14.93,57.39 V -8.619 L 42.234,-41.623 99.401,-8.619 V 57.39 Z m -66.194,-110.234 0.564,-0.344 59.142,-35.791 8.329,4.585 -67.836,41.122 z m 59.963,123.194 -0.571,-0.331 -59.865,-34.559 v -9.508 l 68.731,39.615 z" /></g><g
       transform="translate(319.5371,298.2129)"
       id="g38"><path
         id="path40"
         style="fill:#787a7c;fill-opacity:1;fill-rule:nonzero;stroke:none"
         d="M 0,0 V -9.6 L 24.249,-23.599 V -62.765 L 0,-76.762 v -9.606 l 32.565,18.8 v 48.771 z" /></g><path
       id="path42"
       style="fill:#787a7c;fill-opacity:1;fill-rule:nonzero;stroke:none"
       d="m 328.121,233.67 h -10.765 v 10.765 h 10.765 z" /><path
       id="path44"
       style="fill:#787a7c;fill-opacity:1;fill-rule:nonzero;stroke:none"
       d="m 334.849,242.94 h -8.971 v 8.97 h 8.971 z" /><path
       id="path46"
       style="fill:#787a7c;fill-opacity:1;fill-rule:nonzero;stroke:none"
       d="m 317.506,227.092 h -5.98 v 5.98 h 5.98 z" /><g
       id="g48"><g
         clip-path="url(#clipPath54)"
         id="g50"><g
           transform="translate(295.3955,238.5962)"
           id="g56"><path
             id="path58"
             style="fill:#787a7c;fill-opacity:1;fill-rule:nonzero;stroke:none"
             d="m 0,0 h 9.851 v 6.736 h 8.97 V 0 h 8.007 l -6.709,17.217 -2.101,5.397 c 3.841,1.751 6.516,5.615 6.516,10.113 0,6.14 -4.978,11.118 -11.119,11.118 -6.143,0 -11.122,-4.978 -11.122,-11.118 0,-4.498 2.676,-8.361 6.518,-10.113 L 6.708,17.217 Z" /></g></g></g></g></svg>